ffmpeg version 2025-10-12-git-0bc54cddb1-full_build-www.gyan.dev Copyright (c) 2000-2025 the FFmpeg developers
  built with gcc 15.2.0 (Rev8, Built by MSYS2 project)
  configuration: --enable-gpl --enable-version3 --enable-static --disable-w32threads --disable-autodetect --enable-fontconfig --enable-iconv --enable-gnutls --enable-lcms2 --enable-libxml2 --enable-gmp --enable-bzlib --enable-lzma --enable-libsnappy --enable-zlib --enable-librist --enable-libsrt --enable-libssh --enable-libzmq --enable-avisynth --enable-libbluray --enable-libcaca --enable-libdvdnav --enable-libdvdread --enable-sdl2 --enable-libaribb24 --enable-libaribcaption --enable-libdav1d --enable-libdavs2 --enable-libopenjpeg --enable-libquirc --enable-libuavs3d --enable-libxevd --enable-libzvbi --enable-liboapv --enable-libqrencode --enable-librav1e --enable-libsvtav1 --enable-libvvenc --enable-libwebp --enable-libx264 --enable-libx265 --enable-libxavs2 --enable-libxeve --enable-libxvid --enable-libaom --enable-libjxl --enable-libvpx --enable-mediafoundation --enable-libass --enable-frei0r --enable-libfreetype --enable-libfribidi --enable-libharfbuzz --enable-liblensfun --enable-libvidstab --enable-libvmaf --enable-libzimg --enable-amf --enable-cuda-llvm --enable-cuvid --enable-dxva2 --enable-d3d11va --enable-d3d12va --enable-ffnvcodec --enable-libvpl --enable-nvdec --enable-nvenc --enable-vaapi --enable-libshaderc --enable-vulkan --enable-libplacebo --enable-opencl --enable-libcdio --enable-openal --enable-libgme --enable-libmodplug --enable-libopenmpt --enable-libopencore-amrwb --enable-libmp3lame --enable-libshine --enable-libtheora --enable-libtwolame --enable-libvo-amrwbenc --enable-libcodec2 --enable-libilbc --enable-libgsm --enable-liblc3 --enable-libopencore-amrnb --enable-libopus --enable-libspeex --enable-libvorbis --enable-ladspa --enable-libbs2b --enable-libflite --enable-libmysofa --enable-librubberband --enable-libsoxr --enable-chromaprint --enable-whisper
  libavutil      60. 13.100 / 60. 13.100
  libavcodec     62. 16.100 / 62. 16.100
  libavformat    62.  6.101 / 62.  6.101
  libavdevice    62.  2.100 / 62.  2.100
  libavfilter    11.  9.100 / 11.  9.100
  libswscale      9.  3.100 /  9.  3.100
  libswresample   6.  2.100 /  6.  2.100
Input #0, mov,mp4,m4a,3gp,3g2,mj2, from '//nasfmc/Ổ Sever Mới/Định/Satisfy ASMR/New folder/45s - MUSIC/Tuấn/Funny Crushing Experiment - HP Crunchy\V1066 - V1080\1067H.mp4':
  Metadata:
    major_brand     : mp42
    minor_version   : 0
    compatible_brands: mp42mp41
    creation_time   : 2025-07-11T09:37:34.000000Z
  Duration: 00:00:28.17, start: 0.000000, bitrate: 16077 kb/s
  Stream #0:0[0x1](eng): Video: h264 (Main) (avc1 / 0x31637661), yuv420p(progressive), 1080x1920 [SAR 1:1 DAR 9:16], 15746 kb/s, 60 fps, 60 tbr, 60k tbn (default)
    Metadata:
      creation_time   : 2025-07-11T09:37:34.000000Z
      handler_name    : ?Mainconcept Video Media Handler
      vendor_id       : [0][0][0][0]
      encoder         : AVC Coding
  Stream #0:1[0x2](eng): Audio: aac (LC) (mp4a / 0x6134706D), 48000 Hz, stereo, fltp, 317 kb/s (default)
    Metadata:
      creation_time   : 2025-07-11T09:37:34.000000Z
      handler_name    : #Mainconcept MP4 Sound Media Handler
      vendor_id       : [0][0][0][0]
Stream mapping:
  Stream #0:0 (h264) -> scale:default
  Stream #0:1 (aac) -> aformat:default
  concat:out:v0 -> Stream #0:0 (h264_nvenc)
  concat:out:a0 -> Stream #0:1 (aac)
Press [q] to stop, [?] for help
Output #0, mp4, to 'F:/1\pal_1761296683070.mp4':
  Metadata:
    major_brand     : mp42
    minor_version   : 0
    compatible_brands: mp42mp41
    encoder         : Lavf62.6.101
  Stream #0:0: Video: h264 (Main) (avc1 / 0x31637661), yuv420p(tv, progressive), 1080x1920 [SAR 1:1 DAR 9:16], q=2-31, 60 fps, 15360 tbn
    Metadata:
      encoder         : Lavc62.16.100 h264_nvenc
    Side data:
      CPB properties: bitrate max/min/avg: 0/0/0 buffer size: 0 vbv_delay: N/A
  Stream #0:1: Audio: aac (LC) (mp4a / 0x6134706D), 44100 Hz, stereo, fltp, 160 kb/s
    Metadata:
      encoder         : Lavc62.16.100 aac
frame=   54 fps=0.0 q=21.0 size=    2304KiB time=00:00:00.83 bitrate=22649.7kbits/s speed= 1.6x elapsed=0:00:00.51    frame=  207 fps=200 q=23.0 size=    8704KiB time=00:00:03.40 bitrate=20971.6kbits/s speed=3.29x elapsed=0:00:01.03    frame=  361 fps=232 q=21.0 size=   15360KiB time=00:00:05.96 bitrate=21088.7kbits/s speed=3.84x elapsed=0:00:01.55    frame=  508 fps=246 q=20.0 size=   20992KiB time=00:00:08.41 bitrate=20431.7kbits/s speed=4.07x elapsed=0:00:02.06    frame=  653 fps=253 q=22.0 size=   26624KiB time=00:00:10.83 bitrate=20132.7kbits/s speed=4.19x elapsed=0:00:02.58    frame=  791 fps=255 q=23.0 size=   32512KiB time=00:00:13.13 bitrate=20279.6kbits/s speed=4.24x elapsed=0:00:03.09    frame=  929 fps=256 q=23.0 size=   38400KiB time=00:00:15.41 bitrate=20404.7kbits/s speed=4.25x elapsed=0:00:03.62    frame= 1067 fps=257 q=22.0 size=   44800KiB time=00:00:17.73 bitrate=20695.6kbits/s speed=4.27x elapsed=0:00:04.15    frame= 1200 fps=258 q=22.0 size=   50432KiB time=00:00:19.95 bitrate=20708.7kbits/s speed=4.28x elapsed=0:00:04.65    frame= 1339 fps=259 q=22.0 size=   56832KiB time=00:00:22.26 bitrate=20908.7kbits/s speed= 4.3x elapsed=0:00:05.17    frame= 1474 fps=259 q=23.0 size=   63488KiB time=00:00:24.51 bitrate=21213.9kbits/s speed= 4.3x elapsed=0:00:05.69    frame= 1612 fps=259 q=24.0 size=   70400KiB time=00:00:26.81 bitrate=21505.9kbits/s speed=4.32x elapsed=0:00:06.21    frame= 1803 fps=268 q=27.0 size=   80640KiB time=00:00:30.00 bitrate=22020.1kbits/s dup=0 drop=256 speed=4.47x elapsed=0:00:06.71    frame= 2013 fps=278 q=24.0 size=   91648KiB time=00:00:33.50 bitrate=22411.4kbits/s dup=0 drop=676 speed=4.63x elapsed=0:00:07.23    frame= 2210 fps=285 q=21.0 size=  101632KiB time=00:00:36.78 bitrate=22634.4kbits/s dup=0 drop=1070 speed=4.75x elapsed=0:00:07.75    frame= 2239 fps=271 q=25.0 size=  103168KiB time=N/A bitrate=N/A dup=0 drop=1126 speed=N/A elapsed=0:00:08.26    [mp4 @ 000001b054ca8b00] Starting second pass: moving the moov atom to the beginning of the file
[out#0/mp4 @ 000001b0538eedc0] video:103406KiB audio:816KiB subtitle:0KiB other streams:0KiB global headers:0KiB muxing overhead: 0.059174%
frame= 2255 fps=258 q=26.0 Lsize=  104284KiB time=00:00:37.53 bitrate=22760.9kbits/s dup=0 drop=1126 speed= 4.3x elapsed=0:00:08.73    
[aac @ 000001b053f200c0] Qavg: 642.566
